<svg xmlns="http://www.w3.org/2000/svg" fill="white" viewBox="0 0 24 24" width="24" height="24" color="#ffffff">
    <defs />
    <path fill="#141B34" d="M12,1.25 C17.937,1.25 22.75,6.063 22.75,12 C22.75,17.937 17.937,22.75 12,22.75 C6.063,22.75 1.25,17.937 1.25,12 C1.25,6.063 6.063,1.25 12,1.25 Z M2.75,12 C2.75,17.109 6.891,21.25 12,21.25 C17.109,21.25 21.25,17.109 21.25,12 C21.25,6.891 17.109,2.75 12,2.75 C6.891,2.75 2.75,6.891 2.75,12 Z M9.956,15.386 C9.5,15.079 9.5,14.319 9.5,12.8 L9.5,11.2 C9.5,9.681 9.5,8.921 9.956,8.614 C10.411,8.307 11.035,8.646 12.281,9.326 L12.281,9.326 L13.75,10.126 C15.25,10.944 16,11.353 16,12 C16,12.647 15.25,13.056 13.75,13.874 L12.281,14.674 L12.281,14.674 C11.035,15.354 10.411,15.693 9.956,15.386 Z" />
</svg>